IKResults																																														
version=1																																														
nRows=11																																														
nColumns=47																																														
inDegrees=yes																																														
																																														
"Units are S.I. units (second, meters, Newtons, ...)"																																														
"If the header above contains a line with 'inDegrees', this indicates whether rotational values are in degrees (yes) or radians (no)."																																														
																																														
endheader																																														
time	r_x	r_y	r_z	t_x	t_y	t_z	sternoclavicular_r2_r	sternoclavicular_r3_r	unrotscap_r3_r	unrotscap_r2_r	acromioclavicular_r2_r	acromioclavicular_r3_r	acromioclavicular_r1_r	unrothum_r1_r	unrothum_r3_r	unrothum_r2_r	elv_angle_r	shoulder_elv_r	shoulder1_r2_r	shoulder_rot_r	elbow_flexion_r	pro_sup_r	deviation_r	flexion_r	wrist_hand_r1_r	wrist_hand_r3_r	sternoclavicular_r2_l	sternoclavicular_r3_l	unrotscap_r3_l	unrotscap_r2_l	acromioclavicular_r2_l	acromioclavicular_r3_l	acromioclavicular_r1_l	unrothum_r1_l	unrothum_r3_l	unrothum_r2_l	elv_angle_l	shoulder_elv_l	shoulder1_r2_l	shoulder_rot_l	elbow_flexion_l	pro_sup_l	deviation_l	flexion_l	wrist_hand_r1_l	wrist_hand_r3_l
8.215	-5.71315879	-3.14718883	-6.92092538	0.28046474	1.30318608	-0.24202658	-12.63071608	1.53458716	-1.53458716	12.63071608	3.9350156	10.50198248	25.33598899	-25.33598899	-10.50198248	-3.9350156	14.76724347	79.17377506	-14.76724347	-45.33431724	20.0204304	-45.35178083	0.11272083	0.22693871	8.1691322	6.50131505	-6.04080447	-9.12655469	9.12655469	6.04080447	8.39500836	-6.38781458	28.09966874	-28.09966874	6.38781458	-8.39500836	60.59347728	9.68985316	-60.59347728	9.93052011	13.35463265	-1.93459372	0.13409839	0.03259342	9.58396507	0.93373276
8.22	-5.71852932	-3.23375232	-6.89879684	0.28044623	1.30322154	-0.24196066	-12.62116696	1.52982104	-1.52982104	12.62116696	3.94398166	10.49362648	25.3356565	-25.3356565	-10.49362648	-3.94398166	14.8060779	79.12784644	-14.8060779	-45.58030481	20.14694584	-44.18980524	0.11719959	0.21141599	8.46910887	6.05662207	-6.15815766	-9.13937385	9.13937385	6.15815766	8.27080269	-6.3823645	28.12922857	-28.12922857	6.3823645	-8.27080269	60.19254481	9.67387359	-60.19254481	9.7800721	13.47162338	-1.69057786	0.13804216	0.03636162	9.84029176	1.04168362
8.225	-5.72204733	-3.14104586	-6.90772617	0.28043297	1.30320745	-0.24207018	-12.65765631	1.49077968	-1.49077968	12.65765631	3.88553909	10.46515776	25.33156962	-25.33156962	-10.46515776	-3.88553909	14.53886378	79.10910113	-14.53886378	-45.65222925	19.98207098	-45.25201148	0.11340378	0.22891105	8.21498573	6.55781844	-6.0156171	-9.12280901	9.12280901	6.0156171	8.42182576	-6.387745	28.09319019	-28.09319019	6.387745	-8.42182576	60.67984409	9.69870789	-60.67984409	9.98813798	13.30773706	-1.90442093	0.13456555	0.03247346	9.61440178	0.93029622
8.23	-5.75943756	-3.16007974	-6.8989524	0.28045942	1.30326319	-0.24207031	-12.66081943	1.45807849	-1.45807849	12.66081943	3.86809094	10.43176262	25.32847208	-25.32847208	-10.43176262	-3.86809094	14.45485875	79.00801082	-14.45485875	-45.85334857	20.1254433	-44.52159783	0.11768694	0.21831768	8.50161926	6.25434082	-6.08865728	-9.12359956	9.12359956	6.08865728	8.34567217	-6.37539364	28.11061825	-28.11061825	6.37539364	-8.34567217	60.43258375	9.72798065	-60.43258375	9.72554807	13.37078129	-1.79828932	0.13789657	0.0344718	9.83085443	0.98754424
8.235	-5.7328432	-3.25258918	-6.87362731	0.28042253	1.30327568	-0.2419929	-12.65574851	1.46630755	-1.46630755	12.65574851	3.87739675	10.43867641	25.32930237	-25.32930237	-10.43867641	-3.87739675	14.49781153	79.02012745	-14.49781153	-46.01856756	20.17431726	-43.59122045	0.12100464	0.2067544	8.72246005	5.92307739	-6.15273604	-9.13843181	9.13843181	6.15273604	8.27659693	-6.3821803	28.12781573	-28.12781573	6.3821803	-8.27659693	60.21117844	9.67652035	-60.21117844	9.75442811	13.4516721	-1.57528702	0.14057051	0.0378776	10.00385542	1.08511332
8.24	-5.89296259	-3.09709516	-6.82893353	0.28057925	1.30345077	-0.24221609	-12.69385927	1.33868201	-1.33868201	12.69385927	3.77967636	10.31732243	25.31690715	-25.31690715	-10.31732243	-3.77967636	14.03848511	78.70588908	-14.03848511	-45.93249105	20.37078684	-42.32489365	0.12516459	0.1915529	8.99790595	5.48758648	-6.30647372	-9.13161036	9.13161036	6.30647372	8.11766546	-6.34560638	28.16335404	-28.16335404	6.34560638	-8.11766546	59.69342553	9.78443174	-59.69342553	9.08919924	13.68395728	-1.44090693	0.14333133	0.03911688	10.18177621	1.12061606
8.245	-5.73507193	-3.28434532	-6.84838373	0.28039673	1.3033441	-0.24200165	-12.67366094	1.42930571	-1.42930571	12.67366094	3.84117428	10.4058848	25.32562711	-25.32562711	-10.4058848	-3.84117428	14.32962114	78.95040977	-14.32962114	-46.35431343	20.28459134	-42.00168518	0.12610274	0.18929923	9.05980277	5.42302353	-6.20811292	-9.14183898	9.14183898	6.20811292	8.21840975	-6.37631553	28.14140801	-28.14140801	6.37631553	-8.21840975	60.02282304	9.68339461	-60.02282304	9.84013274	13.48546243	-1.1108479	0.14415545	0.04400751	10.23474704	1.26072218
8.25	-5.7342337	-3.26932788	-6.82653662	0.28038557	1.30334296	-0.2420187	-12.69664191	1.40089849	-1.40089849	12.69664191	3.80275422	10.38392643	25.32269585	-25.32269585	-10.38392643	-3.80275422	14.15340423	78.92564702	-14.15340423	-46.38773997	20.32968161	-41.64851423	0.12734504	0.18731999	9.14163562	5.36632236	-6.19041325	-9.13661133	9.13661133	6.19041325	8.23767068	-6.3730316	28.1365052	-28.1365052	6.3730316	-8.23767068	60.08433748	9.70377812	-60.08433748	9.88425187	13.42574481	-0.94959841	0.1445782	0.04556258	10.26189521	1.30527182
8.255	-5.76068748	-3.07030792	-6.88021537	0.28045502	1.30326491	-0.2422794	-12.75880641	1.33711603	-1.33711603	12.75880641	3.70434236	10.33830582	25.31598873	-25.31598873	-10.33830582	-3.70434236	13.70383414	78.90297317	-13.70383414	-46.43720517	19.95424194	-44.40364267	0.11912518	0.23251216	8.59752071	6.66098276	-5.91431111	-9.10759643	9.10759643	5.91431111	8.52971145	-6.38728175	28.06711299	-28.06711299	6.38728175	-8.52971145	61.02726626	9.73512512	-61.02726626	10.06430609	13.24128046	-1.51339776	0.13739303	0.03337043	9.79821453	0.95599235
8.26	-5.76214688	-3.20794193	-6.84405484	0.28044669	1.30335431	-0.24212005	-12.74232928	1.33217694	-1.33217694	12.74232928	3.72120083	10.3273528	25.31572239	-25.31572239	-10.3273528	-3.72120083	13.77766073	78.8348677	-13.77766073	-46.49559656	20.16484239	-42.58437402	0.12313835	0.20863476	8.86394445	5.97694564	-6.10768022	-9.12928312	9.12928312	6.10768022	8.32496082	-6.37900421	28.11589638	-28.11589638	6.37900421	-8.32496082	60.36644974	9.70571814	-60.36644974	9.79713272	13.4152754	-1.22961191	0.14153578	0.03754905	10.06614291	1.07570093
8.265	-5.88785043	-3.13968046	-6.82866576	0.28052746	1.30344447	-0.24225571	-12.75965921	1.24841112	-1.24841112	12.75965921	3.66589726	10.24502534	25.30767823	-25.30767823	-10.24502534	-3.66589726	13.51539322	78.60467531	-13.51539322	-46.35263948	20.2424213	-41.57128201	0.1261318	0.19615004	9.06171647	5.61928468	-6.22963362	-9.12226384	9.12226384	6.22963362	8.19914503	-6.34798733	28.14387039	-28.14387039	6.34798733	-8.19914503	59.95624866	9.80009352	-59.95624866	9.36941015	13.57689065	-1.11996902	0.14330529	0.03875635	10.18010007	1.11028778
